<?xml version="1.0" encoding="utf-8"?>
<!-- Generator: Adobe Illustrator 27.0.0, SVG Export Plug-In . SVG Version: 6.00 Build 0)  -->
<svg version="1.1" id="Layer_1" xmlns="http://www.w3.org/2000/svg" xmlns:xlink="http://www.w3.org/1999/xlink" x="0px" y="0px"
	 viewBox="0 0 75.7 70.1" style="enable-background:new 0 0 75.7 70.1;" xml:space="preserve">
<style type="text/css">
	.st0{fill-rule:evenodd;clip-rule:evenodd;fill:#A01C43;}
</style>
<g>
	<path id="path3359" class="st0" d="M39.3,36.9c1.5-0.5,3-1.1,4.5-1.7l0,0c0,0,0,0,0,0c1.4-0.6,2.6-1.1,3.8-1.7
		c0-0.1-0.1-0.2-0.1-0.3c-0.6-1.3-0.8-2.6-0.7-3.9c0.1-1.3,0.5-2.4,1.2-3.3c0.7-0.9,1.7-1.6,2.9-2c0.1,0,0.1,0,0.2,0
		c-0.5-1.1-1.1-2.2-1.7-3.3l0,0l0,0c-0.7-1.2-1.4-2.4-2.2-3.5c-0.1,0-0.1,0-0.3,0.1c-1.1,0.3-2.3,0.4-3.5,0.2
		c-1.2-0.2-2.3-0.5-3.3-1.1c-1-0.5-1.8-1.2-2.4-2.1c-1.1,0.3-2.3,0.6-3.4,1l0,0l0,0c-1.4,0.5-2.8,1-4.1,1.6c0.4,0.9,0.5,1.9,0.2,2.9
		c-0.2,1-0.7,2-1.5,2.9c-0.7,0.9-1.7,1.7-2.9,2.3c0.4,1.3,0.8,2.5,1.3,3.9l0,0l0,0c0.5,1.3,1,2.5,1.6,3.7c1.3-0.5,2.7-0.7,4-0.5
		c1.3,0.2,2.5,0.7,3.6,1.5c1.1,0.8,1.9,1.9,2.5,3.3C39.3,36.8,39.3,36.9,39.3,36.9 M48.8,35.4c-1.3,0.6-2.7,1.3-4.2,1.9c0,0,0,0,0,0
		c0,0,0,0,0,0c-1.6,0.6-3.2,1.2-4.8,1.8c0.1,1.2,0,2.4-0.3,3.5c-0.3,1.1-0.9,2.2-1.7,3.1c0.4,0.4,0.7,0.7,1.1,1.1
		c1.6,1.5,3.1,2.7,4.6,3.6c0-0.7,0.2-1.5,0.5-2.2c0.5-1.2,1.1-2.1,2-2.9c0.9-0.7,1.8-1.1,2.9-1.3c1.1-0.2,2.2,0,3.2,0.5
		c0.7,0.3,1.4,0.8,1.9,1.4c0.5-1.7,0.7-3.7,0.6-6c0-0.5,0-1,0-1.5c-1.1-0.1-2.2-0.4-3.2-0.9C50.6,37,49.6,36.3,48.8,35.4 M29.5,15.7
		c1.3-0.6,2.7-1.2,4.2-1.6l0,0c1.2-0.4,2.4-0.8,3.6-1c-0.2-0.8-0.1-1.5,0.2-2.1c0.3-0.6,0.8-1.2,1.6-1.6c-0.1-0.1-0.3-0.2-0.4-0.3
		c-1.4-0.8-2.8-1.3-4.1-1.6c0,0.3-0.2,0.7-0.4,1c-0.4,0.5-1,1-1.7,1.3c-0.7,0.4-1.6,0.7-2.4,0.8c-0.9,0.2-1.7,0.2-2.6,0.1
		c-0.4,0-0.7-0.1-1-0.2c-0.5,0.9-0.9,1.9-1.1,3.1c0,0.2-0.1,0.5-0.1,0.7c0.9-0.1,1.8,0,2.5,0.3C28.3,14.8,29,15.2,29.5,15.7
		 M50.4,13.3c0.1,0.6-0.1,1.2-0.4,1.8c-0.3,0.6-0.8,1-1.4,1.4c0.8,1.1,1.6,2.4,2.3,3.7c0,0,0,0,0,0c0.7,1.1,1.3,2.3,1.8,3.5
		c1,0,2,0.3,3,0.7c1,0.4,1.9,1.1,2.6,1.9c0.2-0.2,0.4-0.4,0.6-0.6c1-1.1,1.7-2.3,2-3.4c-0.6-0.1-1.3-0.4-2-0.7
		c-0.9-0.5-1.7-1.1-2.3-1.8c-0.6-0.7-1.1-1.4-1.4-2.2c-0.3-0.8-0.3-1.5-0.1-2.1c0.1-0.3,0.3-0.6,0.5-0.8c-1.2-0.5-2.5-0.8-4.1-1.1
		C51.3,13.4,50.9,13.4,50.4,13.3 M24,40.1c0.1-1.3,0.4-2.4,1-3.5c0.6-1.1,1.3-2.1,2.3-2.9c-0.6-1.3-1.2-2.6-1.7-3.9l0,0l0,0
		c-0.5-1.4-1-2.7-1.3-4c-1.1,0.3-2.1,0.3-3.1,0.2c-1-0.2-1.8-0.5-2.5-1c-0.2,0.2-0.4,0.4-0.6,0.6c-1.4,1.5-2.5,3-3.2,4.4
		c0.4,0,0.9,0.1,1.3,0.2c0.9,0.3,1.6,0.9,2.1,1.6c0.5,0.8,0.8,1.7,0.9,2.7c0.1,1-0.1,2.1-0.5,3.2c-0.3,0.7-0.6,1.2-1,1.7
		c1.5,0.4,3.3,0.7,5.5,0.7C23.4,40.1,23.7,40.1,24,40.1 M40.2,20.2c-0.8-0.3-1.7-0.4-2.5-0.3c-0.8,0.1-1.5,0.4-2.2,0.8
		c-0.7,0.4-1.2,1-1.5,1.7c-0.4,0.8-0.5,1.5-0.4,2.3c0.1,0.8,0.4,1.5,1,2.1c0.5,0.6,1.2,1.1,2,1.4c0.9,0.3,1.7,0.4,2.6,0.3
		c0.8-0.1,1.6-0.4,2.3-0.9c0.7-0.5,1.2-1.1,1.5-1.9c0.4-1.2,0.4-2.3-0.1-3.3C42.3,21.5,41.4,20.7,40.2,20.2 M35.9,2.5
		c-0.7,0-1.3,0.2-1.8,0.4c-0.5,0.2-0.7,0.5-0.7,0.7c0.1,0.3,0.4,0.5,1,0.7c0.6,0.2,1.3,0.2,2.1,0.1C37.3,4.4,38,4.2,38.4,4
		c0.5-0.2,0.6-0.5,0.5-0.8c-0.1-0.3-0.5-0.5-1.1-0.6C37.3,2.5,36.6,2.4,35.9,2.5 M18.8,7.8c-0.7,0.4-1.2,0.8-1.4,1.2
		c-0.3,0.4-0.3,0.8,0,1c0.3,0.2,0.8,0.3,1.5,0.2c0.7-0.1,1.4-0.4,2.1-0.8c0.7-0.4,1.2-0.9,1.4-1.3c0.2-0.4,0.2-0.8-0.1-1
		C22,6.9,21.5,6.9,20.8,7C20.2,7.2,19.5,7.4,18.8,7.8 M3.7,31c0,0.9,0.1,1.5,0.5,1.9c0.4,0.4,1,0.5,1.7,0.3c0.7-0.3,1.4-0.9,1.9-1.7
		c0.5-0.8,0.8-1.6,0.9-2.6c0-0.9-0.2-1.5-0.6-1.8c-0.4-0.4-1-0.4-1.7-0.1c-0.7,0.3-1.3,0.9-1.8,1.6C4.1,29.3,3.8,30.1,3.7,31
		 M8.7,52.2c0.6,0.9,1.2,1.4,2.1,1.5c0.8,0.2,1.6-0.1,2.4-0.8c0.5-0.5,0.8-1,1.1-1.7c0.2-0.6,0.3-1.3,0.2-2.1
		c-0.1-0.7-0.3-1.4-0.7-2c-0.6-0.9-1.3-1.4-2.1-1.5c-0.8-0.1-1.6,0.2-2.3,0.9c-0.7,0.7-1,1.6-1.1,2.7C8.1,50.4,8.3,51.3,8.7,52.2
		 M42,67.6c1.1-0.2,2-0.8,2.7-1.6c0.7-0.9,0.9-1.9,0.8-3.1c-0.1-1.2-0.7-2.1-1.5-2.8c-0.8-0.7-1.9-0.9-3-0.8
		c-1.1,0.2-2.1,0.8-2.7,1.7c-0.7,0.9-0.9,1.9-0.8,3.1c0.2,1.1,0.7,2,1.6,2.7C39.8,67.5,40.8,67.8,42,67.6 M64.6,56.3
		c0.7-0.7,1.1-1.6,1.2-2.7c0.1-1.1-0.1-2-0.6-2.9c-0.6-0.9-1.3-1.4-2.1-1.5c-0.8-0.1-1.7,0.1-2.4,0.8c-0.5,0.5-0.9,1.1-1.1,1.7
		c-0.2,0.7-0.3,1.4-0.2,2.1c0.1,0.7,0.3,1.4,0.7,2c0.6,0.9,1.3,1.4,2.2,1.4C63.1,57.3,63.9,57,64.6,56.3 M71.3,26.1
		c-0.3-0.8-0.7-1.5-1.3-2.1c-0.6-0.6-1.2-1-1.8-1.1c-0.6-0.1-1.1,0.1-1.3,0.6c-0.3,0.5-0.3,1.1,0,2c0.3,0.9,0.8,1.7,1.4,2.3
		c0.6,0.6,1.2,1,1.9,1.1c0.6,0,1-0.2,1.2-0.7C71.6,27.6,71.6,26.9,71.3,26.1 M60.6,10.5c-0.6-0.5-1.2-0.9-1.9-1.1
		C58.1,9,57.5,9,57.1,9c-0.4,0.1-0.6,0.4-0.5,0.8c0.1,0.4,0.5,0.9,1.1,1.5c0.6,0.5,1.3,0.9,2,1.2c0.7,0.3,1.3,0.3,1.7,0.2
		c0.4-0.2,0.5-0.4,0.4-0.9S61.2,11,60.6,10.5 M24.5,43.5c-0.1-0.4-0.3-0.8-0.4-1.2c-0.4,0-0.8,0-1.2,0c-2.9,0-5.2-0.4-7.1-1.2
		c-0.7,0.4-1.5,0.7-2.2,0.8c-0.8,0.1-1.5,0-2.2-0.3c-0.8-0.4-1.4-1-1.9-1.7c-0.4-0.8-0.7-1.7-0.7-2.7c0-1,0.1-2,0.6-3.1
		c0.4-0.9,0.9-1.6,1.5-2.3c0.6-0.7,1.3-1.1,2-1.4c0.9-1.9,2.2-3.9,4.1-5.9c0.2-0.3,0.5-0.5,0.7-0.7c-0.2-0.3-0.3-0.7-0.4-1
		c-0.3-1.2-0.2-2.4,0.4-3.6c-1.3-0.3-2.6-0.5-3.9-0.6c-0.5,0.6-1.1,1.1-1.8,1.6c-1,0.6-1.8,0.8-2.5,0.7c-0.7-0.1-1.1-0.5-1.1-1.2
		c0-0.7,0.2-1.4,0.8-2.2c0.6-0.8,1.3-1.5,2.1-2.1c0.9-0.6,1.7-0.8,2.4-0.8c0.7,0,1.1,0.3,1.3,1c0.1,0.5,0,1-0.3,1.6
		c1.2,0.2,2.5,0.3,3.9,0.6c0.8-1.1,2-2,3.4-2.7c0.5-0.2,0.9-0.4,1.4-0.5c0-0.3,0.1-0.6,0.2-0.8c0.4-1.5,0.9-2.9,1.7-3.9
		c-0.3-0.3-0.4-0.7-0.4-1.1c0-0.4,0.3-0.9,0.7-1.3c0.4-0.4,1-0.8,1.7-1.2c0.7-0.3,1.5-0.6,2.3-0.7c0.8-0.2,1.6-0.2,2.3-0.1
		c1.2,0.2,2.1,0.5,2.5,1.1c1.8,0.2,3.6,0.8,5.5,1.8c0.2,0.1,0.4,0.2,0.6,0.4c0.2-0.1,0.5-0.2,0.7-0.2c1.4-0.3,2.8-0.2,4.2,0.2
		c0.4-0.8,0.9-1.5,1.3-2.2c-0.7-0.3-1.3-0.6-1.7-1c-0.4-0.5-0.5-0.9-0.3-1.2c0.3-0.3,0.8-0.5,1.6-0.5c0.8,0,1.7,0.1,2.6,0.4
		c0.9,0.3,1.6,0.6,2.1,1c0.5,0.5,0.7,0.9,0.5,1.2c-0.2,0.4-0.7,0.6-1.5,0.6c-0.6,0-1.2,0-1.8-0.1c-0.4,0.7-0.8,1.4-1.2,2.3
		c1.1,0.5,2.1,1.2,2.7,2.1c0.2,0.3,0.4,0.5,0.5,0.8c0.5,0.1,1,0.1,1.5,0.2c2.1,0.4,3.9,1,5.5,1.7c0.5-0.1,1.1-0.1,1.7,0
		c0.6,0.1,1.2,0.4,1.9,0.8c1.2,0.7,2.2,1.6,2.9,2.7c0.7,1.1,1,2.1,0.9,3c-0.2,0.9-0.7,1.5-1.6,1.7c-0.2,1.6-1,3.2-2.4,4.8
		c-0.3,0.3-0.5,0.6-0.8,0.9c0.1,0.2,0.3,0.5,0.4,0.7c0.4,0.8,0.6,1.6,0.8,2.4c0.1,0.8,0.1,1.6,0,2.4c1.6,0.9,3.1,1.8,4.6,2.7
		c0.3-0.8,0.8-1.3,1.5-1.6c0.8-0.3,1.7-0.2,2.5,0.4c0.8,0.6,1.5,1.4,2,2.7c0.4,1.2,0.5,2.4,0.3,3.4c-0.2,1.1-0.7,1.9-1.5,2.3
		c-0.9,0.4-1.7,0.4-2.6-0.2c-0.9-0.6-1.6-1.5-2.1-2.8c-0.3-0.8-0.5-1.6-0.4-2.5C63.6,37,62,36,60.3,35.1c-0.6,1.3-1.6,2.2-2.9,2.8
		c-0.3,0.1-0.5,0.2-0.8,0.2c0,0.6,0.1,1.2,0.1,1.8c0,3.1-0.3,5.8-1.2,8.1c0.3,0.8,0.4,1.6,0.4,2.5c0,0.9-0.1,1.7-0.4,2.6
		c-0.4,1.2-1.1,2.1-1.9,2.8c-0.8,0.7-1.8,1.2-2.9,1.4c-1.1,0.2-2.1,0.1-3.2-0.4c-0.9-0.4-1.6-0.9-2.2-1.6c-0.6-0.7-1.1-1.5-1.4-2.4
		c-2.1-0.9-4.3-2.5-6.5-4.6c-0.4-0.4-0.8-0.9-1.3-1.3c-0.4,0.3-0.8,0.5-1.3,0.7c-0.8,0.4-1.7,0.6-2.6,0.7c-0.9,0.1-1.7,0-2.6-0.2
		c-0.8,2.1-1.6,4.2-2.4,6.3c0.8,0.6,1.4,1.4,1.8,2.4c0.4,0.9,0.5,1.9,0.4,2.8c-0.1,0.9-0.4,1.8-0.9,2.5c-0.5,0.7-1.2,1.3-2,1.6
		c-0.8,0.3-1.7,0.4-2.5,0.3c-0.8-0.2-1.6-0.5-2.3-1.1c-0.7-0.6-1.2-1.3-1.6-2.2c-0.4-0.9-0.5-1.8-0.4-2.8c0.1-0.9,0.4-1.7,0.8-2.5
		c0.5-0.7,1.1-1.3,1.9-1.7c0.9-0.4,1.8-0.5,2.8-0.3c0.8-2.1,1.5-4.2,2.4-6.3c-0.7-0.4-1.4-1-1.9-1.7C25.3,45.1,24.8,44.3,24.5,43.5"
		/>
</g>
</svg>
